<?xml version="1.0" encoding="utf-8"?>
<!-- Generator: Adobe Illustrator 24.3.0, SVG Export Plug-In . SVG Version: 6.00 Build 0)  -->
<svg version="1.1" id="图层_1" xmlns="http://www.w3.org/2000/svg" xmlns:xlink="http://www.w3.org/1999/xlink" x="0px" y="0px"
	 viewBox="0 0 512 512" style="enable-background:new 0 0 512 512;" xml:space="preserve">
<style type="text/css">
	.st0{fill:#0088FF;}
</style>
<path class="st0" d="M339.02,71.82l-11.44,34.11C382.83,132.31,421,188.7,421,254c0,90.57-73.43,164-164,164S93,344.57,93,254
	c0-65.16,38-121.44,93.05-147.9l-13.98-33.39C104.1,104.51,57,173.5,57,253.5C57,363.68,146.32,453,256.5,453S456,363.68,456,253.5
	C456,172.75,408.02,103.21,339.02,71.82z"/>
<polygon class="st0" points="161.12,58 105,58 105,93.88 161.12,93.88 161.12,150 197,150 197,93.88 197,58 "/>
</svg>
